<?xml version="1.0" encoding="UTF-8"?>
<svg width="127px" height="17px" viewBox="0 0 127 17" version="1.1" xmlns="http://www.w3.org/2000/svg" xmlns:xlink="http://www.w3.org/1999/xlink">
    <title>Logo</title>
    <g id="Symbols" stroke="none" stroke-width="1" fill="none" fill-rule="evenodd">
        <g id="Header" transform="translate(-97.000000, -16.000000)" fill="#070707">
            <g id="Logo" transform="translate(97.000000, 16.000000)">
                <path d="M108.096332,16.121447 L110.403735,16.121447 C110.052131,15.7700258 109.898304,15.4186047 109.898304,15.0671835 C109.898304,14.5620155 110.183983,14.0568475 110.513612,13.4857881 L111.810152,11.2674419 L121.14964,11.2674419 L123.874573,16.121447 L126.555556,16.121447 L117.589647,0.746770026 L114.798788,0.746770026 L116.249156,1.99870801 L108.096332,16.121447 Z M1.45036754,16.121447 L3.80172098,16.121447 L3.80172098,1.29586563 L7.86714514,1.29586563 C9.8229438,1.29586563 11.8446682,1.86692506 11.8446682,4.6124031 C11.8446682,7.37984496 10.3723254,7.79715762 8.35060099,7.79715762 L5.88937123,7.79715762 L5.88937123,8.25839793 C6.24097548,11.5090439 8.96590843,13.6614987 11.163435,14.2764858 C13.6246648,14.9573643 14.8113291,15.2648579 15.2508344,16.121447 L15.3167602,16.121447 C15.294785,14.1666667 14.1960217,12.6950904 11.163435,12.0361757 C8.30665046,11.4211886 6.59257973,10.3669251 6.35085181,8.34625323 L8.37257626,8.34625323 C11.4491135,8.34625323 14.1960217,7.20413437 14.1960217,4.54651163 C14.1960217,2.37209302 11.493064,0.746770026 8.37257626,0.746770026 L0,0.746770026 L1.45036754,1.99870801 L1.45036754,16.121447 Z M16.1957709,16.121447 L18.5031738,16.121447 C18.1515695,15.7700258 17.9977427,15.4186047 17.9977427,15.0671835 C17.9977427,14.5620155 18.2834211,14.0568475 18.6130501,13.4857881 L19.9095908,11.2674419 L29.2490787,11.2674419 L31.9740117,16.121447 L34.6549941,16.121447 L25.6890857,0.746770026 L22.8982269,0.746770026 L24.3485945,1.99870801 L16.1957709,16.121447 Z M20.2172445,10.6963824 L24.6342729,3.11886305 L28.9634003,10.6963824 L20.2172445,10.6963824 Z M39.1818989,16.121447 L41.5332523,16.121447 L41.5332523,1.25193798 L44.2142347,1.25193798 C46.8732419,1.25193798 48.1917578,3.90956072 48.8510158,5.99612403 L48.9389169,5.97416021 L47.9939804,0.746770026 L32.743146,0.746770026 L31.8201848,5.97416021 L31.9080859,5.97416021 C32.5673439,3.90956072 33.8638845,1.25193798 36.544867,1.25193798 L39.1818989,1.25193798 L39.1818989,16.121447 Z M60.8055604,16.0335917 C58.124578,16.0335917 55.7732245,14.0788114 55.7732245,11.7726098 C55.7732245,8.82945736 58.3223553,7.92894057 58.5201327,7.84108527 L65.1346877,13.9909561 C63.8161718,15.4405685 62.2559279,16.0335917 60.8055604,16.0335917 L60.8055604,16.0335917 Z M59.948525,17 C62.0142,17 64.1458008,16.1873385 65.5302425,14.3643411 L67.4420906,16.1434109 L70.1230731,16.121447 L66.6290058,12.9366925 L69.0902356,9.57622739 L69.0243098,9.51033592 L66.2993768,12.6511628 C63.6843202,10.1472868 60.7835851,7.40180879 60.2561787,6.94056848 C58.871737,5.71059432 57.4872952,4.30490956 57.4872952,2.65762274 C57.4872952,1.20801034 59.1793907,0.373385013 60.7616098,0.373385013 C62.8492601,0.373385013 64.1458008,2.06459948 64.1458008,3.73385013 C64.1458008,4.94186047 63.3986417,6.1498708 62.5416064,6.72093023 L62.5855569,6.76485788 C64.1897513,6.41343669 65.7939457,4.98578811 65.7939457,3.62403101 C65.7939457,1.12015504 62.9811117,0 60.8714862,0 C58.4102564,0 55.5974224,1.03229974 55.5974224,3.49224806 C55.5974224,5.09560724 56.9379136,6.43540052 58.1905038,7.46770026 C54.8502634,8.67571059 53.7295248,10.3888889 53.7295248,11.9263566 C53.7295248,15.0891473 56.7621115,17 59.948525,17 L59.948525,17 Z M78.4077483,15.5723514 L78.4077483,8.34625323 L84.4289711,8.36821705 C86.1650171,8.36821705 88.0329147,9.2248062 88.0329147,10.6963824 C88.0329147,11.1136951 87.8790878,11.5749354 87.5494588,12.0581395 C85.8573634,14.5400517 85.3958828,15.5723514 83.264282,15.5723514 L78.4077483,15.5723514 Z M76.0563948,16.121447 L83.7477378,16.121447 C87.1978546,16.121447 88.8459995,14.8036176 90.1645154,11.9043928 C90.2743918,11.6627907 90.3403176,11.4211886 90.3403176,11.1576227 C90.3403176,9.62015504 88.0988405,8.10465116 85.2640312,7.92894057 C87.1758793,7.37984496 88.802049,6.08397933 88.802049,4.54651163 C88.802049,2.37209302 86.0990913,0.746770026 82.9786035,0.746770026 L74.6060273,0.746770026 L76.0563948,1.99870801 L76.0563948,16.121447 Z M78.4077483,7.81912145 L78.4077483,1.29586563 L82.4731724,1.29586563 C84.4289711,1.29586563 86.4946461,1.86692506 86.4946461,4.6124031 C86.4946461,7.37984496 84.9783527,7.79715762 82.9566283,7.79715762 L78.4077483,7.81912145 Z M100.361039,16.6705426 C104.99782,16.6705426 108.579788,13.2881137 108.579788,8.67571059 C108.579788,8.39018088 108.557813,8.10465116 108.535838,7.81912145 C108.206209,3.49224806 104.338562,0.241602067 100.009435,0.241602067 C95.3287029,0.241602067 91.7467346,3.90956072 91.7467346,8.28036176 C91.7467346,8.54392765 91.7687098,8.80749354 91.7906851,9.09302326 C92.1203141,13.4198966 95.9659856,16.6705426 100.361039,16.6705426 L100.361039,16.6705426 Z M98.976597,15.7260982 C96.1198125,15.9457364 93.5267311,13.5297158 93.5267311,9.75193798 C93.5267311,5.57881137 97.15265,1.38372093 101.064247,1.05426357 C103.943007,0.812661499 106.997569,3.27260982 106.997569,7.02842377 C106.997569,11.3113695 103.195848,15.3966408 98.976597,15.7260982 L98.976597,15.7260982 Z M112.117806,10.6963824 L116.534834,3.11886305 L120.863962,10.6963824 L112.117806,10.6963824 Z" id="Fill-1"></path>
            </g>
        </g>
    </g>
</svg>